<?xml version="1.0" encoding="utf-8"?>
<svg xmlns="http://www.w3.org/2000/svg" viewBox="0 0 389 365.16" style="fill:#207e5c">
    <polygon points="130 161 37 161 37 257 145 257 145 285 0 285 0 19 144 19 144 47 37 47 37 133 130 133 130 161 130 161" />
    <polygon points="213 285 177 285 177 0 213 0 213 285 213 285" />
    <path d="M319,246.42l34-142h42l-66,227c-5.07,17.07-10.54,30.61-20,39.49S291.1,382.58,279,382.58c-4.67,0-13.89-1.65-21-3.16l4.11-27s18.89,1.78,22.69-4.37c4.54-4.26,8.71-13.46,12.21-24.48l6-23.16-58-196h41l33,142h0Z" transform="translate(-6 -17.42)" />
</svg>
